<svg width="40" height="40" viewBox="0 0 40 40" fill="none" xmlns="http://www.w3.org/2000/svg">
<path d="M30 13.3333H31.6667C33.4348 13.3333 35.1305 14.0357 36.3807 15.286C37.631 16.5362 38.3333 18.2319 38.3333 20C38.3333 21.7681 37.631 23.4638 36.3807 24.7141C35.1305 25.9643 33.4348 26.6667 31.6667 26.6667H30" stroke="#F25D27" stroke-width="3" stroke-linecap="round" stroke-linejoin="round"/>
<path d="M3.33301 13.3333H29.9997V28.3333C29.9997 30.1015 29.2973 31.7971 28.0471 33.0474C26.7968 34.2976 25.1011 35 23.333 35H9.99967C8.23156 35 6.53587 34.2976 5.28563 33.0474C4.03539 31.7971 3.33301 30.1015 3.33301 28.3333V13.3333Z" stroke="#F25D27" stroke-width="3" stroke-linecap="round" stroke-linejoin="round"/>
<path d="M10 1.66666V6.66666" stroke="#F25D27" stroke-width="3" stroke-linecap="round" stroke-linejoin="round"/>
<path d="M16.667 1.66666V6.66666" stroke="#F25D27" stroke-width="3" stroke-linecap="round" stroke-linejoin="round"/>
<path d="M23.333 1.66666V6.66666" stroke="#F25D27" stroke-width="3" stroke-linecap="round" stroke-linejoin="round"/>
</svg>
